<svg width="512" height="512" xmlns="http://www.w3.org/2000/svg">
 <!--! Font Awesome Pro 6.1.1 by @fontawesome - https://fontawesome.com License - https://fontawesome.com/license (Commercial License) Copyright 2022 Fonticons, Inc. -->

 <g>
  <title>background</title>
  <rect fill="none" id="canvas_background" height="402" width="582" y="-1" x="-1"/>
 </g>
 <g>
  <title>Layer 1</title>
  <path fill="#ffffff" id="svg_1" d="m282.3,343.7l-34.2,32.4c-3.6,5.4 -9.7,7.9 -16.1,7.9l-40,0l0,40c0,13.3 -10.7,24 -24,24l-40,0l0,40c0,13.3 -10.7,24 -24,24l-80,0c-13.25,0 -24,-10.7 -24,-24l0,-80c0,-6.4 2.529,-12.5 7.029,-17l161.271,-161.3c-5.4,-16.9 -8.3,-35 -8.3,-53.7c0,-97.2 78.8,-176 176,-176c97.2,0 176,78.8 176,176c0,97.2 -78.8,176 -176,176c-18.7,0 -36.8,-2.9 -53.7,-8.3zm93.7,-167.7c22.1,0 40,-17.9 40,-40c0,-22.1 -17.9,-40 -40,-40c-22.1,0 -40,17.9 -40,40c0,22.1 17.9,40 40,40z"/>
 </g>
</svg>