<?xml version="1.0" standalone="no"?>
<!DOCTYPE svg PUBLIC "-//W3C//DTD SVG 20010904//EN"
 "http://www.w3.org/TR/2001/REC-SVG-20010904/DTD/svg10.dtd">
<svg version="1.0" xmlns="http://www.w3.org/2000/svg"
 width="539.000000pt" height="203.000000pt" viewBox="0 0 539.000000 203.000000"
 preserveAspectRatio="xMidYMid meet">

<g transform="translate(0.000000,203.000000) scale(0.100000,-0.100000)"
fill="#000000" stroke="none">
<path d="M920 2018 c-146 -12 -308 -50 -381 -89 -145 -77 -207 -235 -188 -479
4 -47 12 -158 19 -248 24 -309 -19 -544 -157 -854 -28 -63 -37 -68 -130 -68
-51 0 -64 -3 -73 -19 -36 -68 23 -191 110 -227 31 -14 62 -13 300 7 247 21
282 22 510 11 135 -7 319 -19 410 -27 91 -8 220 -15 287 -15 l123 0 40 36 c50
45 93 134 121 250 34 141 30 357 -11 579 -53 289 -60 336 -60 456 0 162 35
289 106 383 14 20 15 20 65 2 103 -38 199 5 199 88 0 72 -40 94 -280 150 -278
64 -696 91 -1010 64z m665 -54 c141 -14 336 -48 435 -77 l44 -13 -36 -22 c-52
-32 -131 -122 -158 -179 -93 -197 -98 -336 -27 -718 39 -208 41 -231 42 -410
0 -169 -3 -199 -23 -270 -43 -147 -101 -225 -168 -225 -62 0 -114 42 -114 91
0 22 10 35 46 59 83 58 62 65 -226 80 -118 5 -278 15 -355 21 -184 14 -563 14
-695 1 -57 -6 -105 -10 -107 -9 -1 2 16 48 38 102 132 327 160 538 124 920
-18 190 -16 316 5 387 6 20 28 63 50 96 59 88 148 130 345 163 179 29 500 30
780 3z m575 -134 c12 -22 -11 -79 -33 -81 -6 0 -20 -2 -29 -4 -22 -4 -98 15
-98 25 0 15 110 79 137 80 7 0 17 -9 23 -20z m-1020 -1579 c58 -5 164 -13 235
-17 72 -4 139 -8 150 -9 11 -1 26 -3 34 -4 11 -1 11 -5 -2 -19 -29 -32 -32
-77 -8 -117 l21 -36 -52 5 c-316 36 -874 58 -1008 42 -106 -13 -256 -26 -309
-26 -92 0 -151 52 -151 133 l0 33 53 2 c90 3 322 24 327 29 8 8 590 -5 710
-16z"/>
<path d="M730 1510 c0 -16 5 -30 10 -30 16 0 12 -32 -7 -52 -18 -20 -14 -31
10 -22 21 8 47 65 47 103 0 28 -3 31 -30 31 -27 0 -30 -3 -30 -30z"/>
<path d="M850 1511 c0 -26 4 -30 33 -33 31 -3 32 -4 29 -48 -4 -67 -27 -129
-107 -290 -94 -187 -115 -257 -122 -391 -8 -157 -9 -154 82 -156 93 -1 90 -7
76 186 -12 163 -2 274 35 393 29 91 54 152 59 146 4 -4 26 -144 83 -530 l19
-128 -23 0 c-20 0 -24 -5 -24 -30 l0 -31 133 3 132 3 3 27 c3 24 0 28 -22 28
-14 0 -26 6 -26 13 0 7 18 153 40 325 22 171 40 319 40 328 0 52 14 -24 55
-306 25 -173 48 -325 50 -337 4 -18 1 -23 -15 -23 -16 0 -20 -7 -20 -30 l0
-30 120 0 120 0 0 30 c0 27 -3 30 -30 30 -16 0 -30 2 -30 4 0 4 -105 708 -116
779 -6 36 -5 37 25 37 28 0 31 3 31 30 l0 30 -125 0 -125 0 0 -30 c0 -23 4
-30 20 -30 11 0 20 -6 20 -12 -2 -69 -99 -737 -104 -718 -7 28 -106 696 -106
717 0 7 11 13 25 13 21 0 25 5 25 30 l0 30 -130 0 -130 0 0 -29z"/>
<path d="M3050 1330 l0 -110 29 0 c26 0 35 9 75 73 l46 72 0 -72 c0 -71 1 -73
25 -73 l25 0 0 110 0 110 -28 0 c-23 0 -34 -11 -69 -67 l-43 -68 0 68 0 67
-30 0 -30 0 0 -110z"/>
<path d="M3312 1374 c-30 -21 -28 -44 3 -44 14 0 25 5 25 11 0 13 50 8 53 -6
1 -5 -8 -11 -20 -13 -31 -4 -29 -28 2 -36 30 -8 33 -32 4 -41 -13 -4 -27 -1
-39 10 -10 9 -29 15 -42 13 l-23 -3 27 -27 c47 -49 148 -30 148 27 0 13 -5 27
-10 30 -7 4 -7 12 0 25 13 25 3 50 -27 61 -36 13 -76 11 -101 -7z"/>
<path d="M3733 1375 c-43 -31 -19 -61 26 -33 21 13 55 4 49 -14 -3 -7 -23 -16
-46 -20 -56 -9 -62 -14 -62 -47 0 -38 22 -55 62 -47 18 4 48 6 66 6 l32 -1 0
64 c0 36 -6 71 -13 81 -18 25 -86 31 -114 11z m77 -100 c0 -17 -36 -39 -50
-30 -14 9 -12 32 3 38 24 10 47 7 47 -8z"/>
<path d="M4104 1376 c-35 -16 -44 -32 -44 -82 0 -68 73 -105 139 -71 37 19 40
41 5 35 -16 -3 -36 -8 -45 -12 -16 -7 -49 16 -49 35 0 5 30 9 66 9 l66 0 -6
28 c-8 34 -50 72 -79 72 -12 -1 -36 -7 -53 -14z m74 -48 c3 -14 -3 -18 -26
-18 -34 0 -43 7 -35 27 8 20 57 13 61 -9z"/>
<path d="M4693 1380 c-28 -12 -43 -40 -43 -85 0 -49 36 -85 85 -85 35 0 85 35
85 60 0 18 -41 11 -58 -11 -33 -40 -73 6 -58 66 5 18 13 25 32 25 13 0 27 -7
30 -15 7 -17 40 -20 49 -5 3 5 -5 21 -19 35 -26 26 -62 31 -103 15z"/>
<path d="M5243 1378 c-52 -25 -54 -129 -3 -156 35 -18 101 -8 122 18 18 22 24
74 12 105 -14 36 -86 55 -131 33z m81 -44 c15 -39 -5 -94 -34 -94 -33 0 -53
73 -28 98 17 17 55 15 62 -4z"/>
<path d="M3510 1346 c0 -46 -19 -96 -37 -96 -10 0 -13 -10 -11 -37 2 -30 7
-38 23 -38 13 0 21 8 23 23 3 20 9 22 62 22 53 0 59 -2 62 -22 2 -15 10 -23
23 -23 16 0 21 8 23 38 2 28 0 37 -12 37 -13 0 -16 13 -16 65 l0 65 -70 0 -70
0 0 -34z m90 -46 c0 -49 -1 -50 -31 -50 -24 0 -29 4 -25 18 2 9 7 32 11 50 5
23 12 32 26 32 16 0 19 -7 19 -50z"/>
<path d="M3880 1365 c0 -10 10 -15 30 -15 l30 0 0 -65 c0 -63 1 -65 25 -65 24
0 25 2 25 65 0 63 1 65 25 65 16 0 25 6 25 15 0 12 -16 15 -80 15 -64 0 -80
-3 -80 -15z"/>
<path d="M4290 1319 c0 -53 -3 -62 -20 -66 -33 -9 -20 -38 14 -36 41 3 49 15
54 78 4 45 8 55 23 55 17 0 19 -8 19 -65 0 -63 1 -65 25 -65 25 0 25 1 25 80
l0 80 -70 0 -70 0 0 -61z"/>
<path d="M4480 1300 l0 -80 65 0 c53 0 66 3 75 19 23 45 6 73 -52 80 -38 5
-43 9 -46 34 -2 19 -9 27 -23 27 -17 0 -19 -8 -19 -80z m95 -30 c0 -9 -11 -16
-27 -18 -23 -3 -28 1 -28 18 0 17 5 21 28 18 16 -2 27 -9 27 -18z"/>
<path d="M4830 1365 c0 -10 10 -15 30 -15 l30 0 0 -65 c0 -63 1 -65 25 -65 24
0 25 2 25 65 0 63 1 65 25 65 16 0 25 6 25 15 0 12 -16 15 -80 15 -64 0 -80
-3 -80 -15z"/>
<path d="M5020 1300 l0 -80 70 0 c60 0 71 3 80 21 9 15 8 25 -3 42 -11 17 -11
26 -3 40 21 34 -4 52 -78 55 l-66 3 0 -81z m98 33 c2 -8 -6 -13 -22 -13 -17 0
-26 5 -26 16 0 19 41 16 48 -3z m1 -56 c14 -17 4 -27 -26 -27 -16 0 -23 6 -23
20 0 23 31 27 49 7z"/>
<path d="M2230 1065 c0 -8 9 -15 20 -15 41 0 22 -65 -57 -187 -47 -74 -73
-150 -73 -216 l0 -54 47 -6 c27 -3 51 -3 55 -1 4 3 5 51 1 108 -5 88 -3 113
15 172 40 130 45 126 76 -52 15 -88 30 -167 32 -176 4 -12 0 -18 -10 -18 -9 0
-16 -7 -16 -15 0 -12 16 -15 85 -15 69 0 85 3 85 15 0 8 -7 15 -15 15 -8 0
-15 3 -15 8 0 18 53 342 56 339 11 -10 63 -342 54 -345 -5 -2 -10 -10 -10 -18
0 -11 17 -14 75 -14 60 0 75 3 75 15 0 8 -9 15 -19 15 -16 0 -22 17 -41 123
-12 67 -30 164 -40 215 -16 89 -16 92 2 92 10 0 18 7 18 15 0 12 -16 15 -80
15 -64 0 -80 -3 -80 -15 0 -8 7 -15 16 -15 12 0 14 -7 10 -27 -3 -16 -17 -102
-31 -193 -15 -90 -28 -166 -31 -169 -2 -2 -4 -1 -4 3 0 9 -58 335 -65 364 -4
15 -1 22 10 22 8 0 15 7 15 15 0 12 -16 15 -80 15 -64 0 -80 -3 -80 -15z"/>
<path d="M3703 918 c-51 -56 -73 -144 -54 -213 15 -59 67 -135 90 -135 35 0
108 107 87 128 -4 4 -16 -4 -26 -18 -24 -31 -45 -21 -74 35 -23 45 -34 149
-17 159 7 4 27 -8 48 -29 19 -19 37 -34 38 -33 45 65 45 71 -2 103 -46 31 -64
31 -90 3z"/>
<path d="M4238 920 c-14 -10 -35 -43 -48 -72 -22 -51 -22 -59 -16 -243 4 -104
10 -192 13 -195 2 -3 14 6 25 20 18 22 20 35 15 112 l-4 88 29 -25 c50 -42 87
-29 114 40 29 78 2 217 -55 274 -26 26 -41 26 -73 1z m29 -77 c28 -42 42 -77
49 -130 5 -39 2 -53 -14 -73 l-19 -24 -26 26 c-42 42 -57 118 -36 191 12 44
21 46 46 10z"/>
<path d="M5034 921 c-9 -9 -3 -35 18 -82 28 -59 48 -64 48 -11 0 43 14 62 47
62 22 0 22 -2 25 -147 l3 -148 35 0 35 0 -4 148 -3 147 29 0 c39 0 53 -16 53
-62 0 -25 5 -38 14 -38 15 0 46 73 46 110 l0 25 -171 0 c-94 0 -173 -2 -175
-4z"/>
<path d="M2854 896 c4 -17 -3 -35 -28 -68 -81 -105 -97 -178 -51 -224 38 -38
85 -19 113 46 l15 35 14 -47 c13 -46 16 -48 50 -48 32 0 35 2 30 23 -3 12 -20
86 -39 164 l-33 143 -39 0 c-35 0 -38 -2 -32 -24z m33 -139 c4 -45 2 -55 -16
-72 -53 -47 -77 46 -31 120 19 31 24 35 32 21 5 -10 12 -40 15 -69z"/>
<path d="M3054 907 c-2 -7 -3 -80 -2 -162 l3 -150 33 -3 c21 -2 32 1 33 10 0
7 0 55 -1 106 -1 50 3 92 7 92 5 0 25 -11 46 -25 36 -25 37 -27 37 -90 0 -84
5 -95 44 -95 l33 0 -1 165 -1 165 -31 0 c-36 0 -44 -16 -44 -93 l0 -48 -45 31
c-41 28 -45 35 -45 70 0 38 -2 40 -30 40 -17 0 -33 -6 -36 -13z"/>
<path d="M3330 912 c0 -4 9 -39 20 -77 11 -39 23 -109 27 -157 l6 -88 44 0 45
0 -6 -37 c-21 -148 -19 -161 28 -149 22 5 22 7 13 83 -9 83 -2 224 14 285 12
46 37 74 52 59 17 -17 24 -13 30 17 3 15 8 37 12 50 7 19 4 22 -23 22 -34 0
-59 -20 -74 -59 -14 -37 -38 -167 -38 -207 0 -23 -5 -34 -14 -34 -10 0 -16 17
-21 58 -6 63 -22 171 -31 215 -5 24 -10 27 -45 27 -21 0 -39 -3 -39 -8z"/>
<path d="M3896 898 c-9 -35 -7 -281 3 -296 5 -8 21 -12 37 -10 l29 3 -3 74
c-3 58 -1 72 10 69 22 -7 58 -69 64 -110 6 -36 8 -38 45 -38 33 0 39 3 39 21
0 41 -51 108 -102 135 -16 8 -28 18 -28 23 0 4 15 25 34 47 29 34 35 37 50 25
21 -18 32 -7 40 42 6 34 5 37 -17 37 -34 0 -60 -24 -103 -95 l-36 -60 7 78 7
77 -35 0 c-27 0 -36 -5 -41 -22z"/>
<path d="M4446 898 c-3 -13 -6 -77 -6 -143 0 -156 3 -165 47 -165 l36 0 -7 79
-7 80 48 35 48 35 5 -112 5 -112 35 0 35 0 -2 160 -1 160 -34 0 c-30 0 -33 -3
-36 -32 -3 -26 -13 -39 -47 -63 -24 -16 -47 -30 -50 -30 -4 0 -3 29 0 65 l7
65 -35 0 c-28 0 -36 -5 -41 -22z"/>
<path d="M4756 898 c-8 -30 -8 -272 0 -292 4 -10 18 -16 41 -16 l35 0 -7 105
c-4 57 -4 125 -1 150 l7 45 42 0 43 0 -4 -105 c-3 -58 -1 -125 2 -150 7 -43 9
-45 41 -45 l34 0 -1 165 -2 165 -112 0 c-107 0 -112 -1 -118 -22z"/>
</g>
</svg>
