<svg width="539" height="203" xmlns="http://www.w3.org/2000/svg" preserveAspectRatio="xMidYMid meet" version="1.0">

 <g>
  <title>Layer 1</title>
  <path fill="#3d4d64" id="svg_2" d="m92,1.2c-14.6,1.2 -30.8,5 -38.1,8.9c-14.5,7.7 -20.7,23.5 -18.8,47.9c0.4,4.7 1.2,15.8 1.9,24.8c2.4,30.9 -1.9,54.4 -15.7,85.4c-2.8,6.3 -3.7,6.8 -13,6.8c-5.1,0 -6.4,0.3 -7.3,1.9c-3.6,6.8 2.3,19.1 11,22.7c3.1,1.4 6.2,1.3 30,-0.7c24.7,-2.1 28.2,-2.2 51,-1.1c13.5,0.7 31.9,1.9 41,2.7c9.1,0.8 22,1.5 28.7,1.5l12.3,0l4,-3.6c5,-4.5 9.3,-13.4 12.1,-25c3.4,-14.1 3,-35.7 -1.1,-57.9c-5.3,-28.9 -6,-33.6 -6,-45.6c0,-16.2 3.5,-28.9 10.6,-38.3c1.4,-2 1.5,-2 6.5,-0.2c10.3,3.8 19.9,-0.5 19.9,-8.8c0,-7.2 -4,-9.4 -28,-15c-27.8,-6.4 -69.6,-9.1 -101,-6.4zm66.5,5.4c14.1,1.4 33.6,4.8 43.5,7.7l4.4,1.3l-3.6,2.2c-5.2,3.2 -13.1,12.2 -15.8,17.9c-9.3,19.7 -9.8,33.6 -2.7,71.8c3.9,20.8 4.1,23.1 4.2,41c0,16.9 -0.3,19.9 -2.3,27c-4.3,14.7 -10.1,22.5 -16.8,22.5c-6.2,0 -11.4,-4.2 -11.4,-9.1c0,-2.2 1,-3.5 4.6,-5.9c8.3,-5.8 6.2,-6.5 -22.6,-8c-11.8,-0.5 -27.8,-1.5 -35.5,-2.1c-18.4,-1.4 -56.3,-1.4 -69.5,-0.1c-5.7,0.6 -10.5,1 -10.7,0.9c-0.1,-0.2 1.6,-4.8 3.8,-10.2c13.2,-32.7 16,-53.8 12.4,-92c-1.8,-19 -1.6,-31.6 0.5,-38.7c0.6,-2 2.8,-6.3 5,-9.6c5.9,-8.8 14.8,-13 34.5,-16.3c17.9,-2.9 50,-3 78,-0.3zm57.5,13.4c1.2,2.2 -1.1,7.9 -3.3,8.1c-0.6,0 -2,0.2 -2.9,0.4c-2.2,0.4 -9.8,-1.5 -9.8,-2.5c0,-1.5 11,-7.9 13.7,-8c0.7,0 1.7,0.9 2.3,2zm-102,157.9c5.8,0.5 16.4,1.3 23.5,1.7c7.2,0.4 13.9,0.8 15,0.9c1.1,0.1 2.6,0.3 3.4,0.4c1.1,0.1 1.1,0.5 -0.2,1.9c-2.9,3.2 -3.2,7.7 -0.8,11.7l2.1,3.6l-5.2,-0.5c-31.6,-3.6 -87.4,-5.8 -100.8,-4.2c-10.6,1.3 -25.6,2.6 -30.9,2.6c-9.2,0 -15.1,-5.2 -15.1,-13.3l0,-3.3l5.3,-0.2c9,-0.3 32.2,-2.4 32.7,-2.9c0.8,-0.8 59,0.5 71,1.6z"/>
  <path fill="#e3631e" id="svg_3" d="m73,52c0,1.6 0.5,3 1,3c1.6,0 1.2,3.2 -0.7,5.2c-1.8,2 -1.4,3.1 1,2.2c2.1,-0.8 4.7,-6.5 4.7,-10.3c0,-2.8 -0.3,-3.1 -3,-3.1c-2.7,0 -3,0.3 -3,3z"/>
  <path fill="#e3631e" id="svg_4" d="m85,51.9c0,2.6 0.4,3 3.3,3.3c3.1,0.3 3.2,0.4 2.9,4.8c-0.4,6.7 -2.7,12.9 -10.7,29c-9.4,18.7 -11.5,25.7 -12.2,39.1c-0.8,15.7 -0.9,15.4 8.2,15.6c9.3,0.1 9,0.7 7.6,-18.6c-1.2,-16.3 -0.2,-27.4 3.5,-39.3c2.9,-9.1 5.4,-15.2 5.9,-14.6c0.4,0.4 2.6,14.4 8.3,53l1.9,12.8l-2.3,0c-2,0 -2.4,0.5 -2.4,3l0,3.1l13.3,-0.3l13.2,-0.3l0.3,-2.7c0.3,-2.4 0,-2.8 -2.2,-2.8c-1.4,0 -2.6,-0.6 -2.6,-1.3c0,-0.7 1.8,-15.3 4,-32.5c2.2,-17.1 4,-31.9 4,-32.8c0,-5.2 1.4,2.4 5.5,30.6c2.5,17.3 4.8,32.5 5,33.7c0.4,1.8 0.1,2.3 -1.5,2.3c-1.6,0 -2,0.7 -2,3l0,3l12,0l12,0l0,-3c0,-2.7 -0.3,-3 -3,-3c-1.6,0 -3,-0.2 -3,-0.4c0,-0.4 -10.5,-70.8 -11.6,-77.9c-0.6,-3.6 -0.5,-3.7 2.5,-3.7c2.8,0 3.1,-0.3 3.1,-3l0,-3l-12.5,0l-12.5,0l0,3c0,2.3 0.4,3 2,3c1.1,0 2,0.6 2,1.2c-0.2,6.9 -9.9,73.7 -10.4,71.8c-0.7,-2.8 -10.6,-69.6 -10.6,-71.7c0,-0.7 1.1,-1.3 2.5,-1.3c2.1,0 2.5,-0.5 2.5,-3l0,-3l-13,0l-13,0l0,2.9z"/>
  <path fill="#3d4d64" id="svg_5" d="m305,70l0,11l2.9,0c2.6,0 3.5,-0.9 7.5,-7.3l4.6,-7.2l0,7.2c0,7.1 0.1,7.3 2.5,7.3l2.5,0l0,-11l0,-11l-2.8,0c-2.3,0 -3.4,1.1 -6.9,6.7l-4.3,6.8l0,-6.8l0,-6.7l-3,0l-3,0l0,11z"/>
  <path fill="#3d4d64" id="svg_6" d="m331.2,65.6c-3,2.1 -2.8,4.4 0.3,4.4c1.4,0 2.5,-0.5 2.5,-1.1c0,-1.3 5,-0.8 5.3,0.6c0.1,0.5 -0.8,1.1 -2,1.3c-3.1,0.4 -2.9,2.8 0.2,3.6c3,0.8 3.3,3.2 0.4,4.1c-1.3,0.4 -2.7,0.1 -3.9,-1c-1,-0.9 -2.9,-1.5 -4.2,-1.3l-2.3,0.3l2.7,2.7c4.7,4.9 14.8,3 14.8,-2.7c0,-1.3 -0.5,-2.7 -1,-3c-0.7,-0.4 -0.7,-1.2 0,-2.5c1.3,-2.5 0.3,-5 -2.7,-6.1c-3.6,-1.3 -7.6,-1.1 -10.1,0.7z"/>
  <path fill="#3d4d64" id="svg_7" d="m373.30001,65.5c-4.3,3.1 -1.9,6.1 2.6,3.3c2.1,-1.3 5.5,-0.4 4.9,1.4c-0.3,0.7 -2.3,1.6 -4.6,2c-5.6,0.9 -6.2,1.4 -6.2,4.7c0,3.8 2.2,5.5 6.2,4.7c1.8,-0.4 4.8,-0.6 6.6,-0.6l3.2,0.1l0,-6.4c0,-3.6 -0.6,-7.1 -1.3,-8.1c-1.8,-2.5 -8.6,-3.1 -11.4,-1.1zm7.7,10c0,1.7 -3.6,3.9 -5,3c-1.4,-0.9 -1.2,-3.2 0.3,-3.8c2.4,-1 4.7,-0.7 4.7,0.8z"/>
  <path fill="#3d4d64" id="svg_8" d="m410.40001,65.4c-3.5,1.6 -4.4,3.2 -4.4,8.2c0,6.8 7.3,10.5 13.9,7.1c3.7,-1.9 4,-4.1 0.5,-3.5c-1.6,0.3 -3.6,0.8 -4.5,1.2c-1.6,0.7 -4.9,-1.6 -4.9,-3.5c0,-0.5 3,-0.9 6.6,-0.9l6.6,0l-0.6,-2.8c-0.8,-3.4 -5,-7.2 -7.9,-7.2c-1.2,0.1 -3.6,0.7 -5.3,1.4zm7.4,4.8c0.3,1.4 -0.3,1.8 -2.6,1.8c-3.4,0 -4.3,-0.7 -3.5,-2.7c0.8,-2 5.7,-1.3 6.1,0.9z"/>
  <path fill="#3d4d64" id="svg_9" d="m469.30001,65c-2.8,1.2 -4.3,4 -4.3,8.5c0,4.9 3.6,8.5 8.5,8.5c3.5,0 8.5,-3.5 8.5,-6c0,-1.8 -4.1,-1.1 -5.8,1.1c-3.3,4 -7.3,-0.6 -5.8,-6.6c0.5,-1.8 1.3,-2.5 3.2,-2.5c1.3,0 2.7,0.7 3,1.5c0.7,1.7 4,2 4.9,0.5c0.3,-0.5 -0.5,-2.1 -1.9,-3.5c-2.6,-2.6 -6.2,-3.1 -10.3,-1.5z"/>
  <path fill="#3d4d64" id="svg_10" d="m524.30001,65.2c-5.2,2.5 -5.4,12.9 -0.3,15.6c3.5,1.8 10.1,0.8 12.2,-1.8c1.8,-2.2 2.4,-7.4 1.2,-10.5c-1.4,-3.6 -8.6,-5.5 -13.1,-3.3zm8.1,4.4c1.5,3.9 -0.5,9.4 -3.4,9.4c-3.3,0 -5.3,-7.3 -2.8,-9.8c1.7,-1.7 5.5,-1.5 6.2,0.4z"/>
  <path fill="#3d4d64" id="svg_11" d="m351.00001,68.4c0,4.6 -1.9,9.6 -3.7,9.6c-1,0 -1.3,1 -1.1,3.7c0.2,3 0.7,3.8 2.3,3.8c1.3,0 2.1,-0.8 2.3,-2.3c0.3,-2 0.9,-2.2 6.2,-2.2c5.3,0 5.9,0.2 6.2,2.2c0.2,1.5 1,2.3 2.3,2.3c1.6,0 2.1,-0.8 2.3,-3.8c0.2,-2.8 0,-3.7 -1.2,-3.7c-1.3,0 -1.6,-1.3 -1.6,-6.5l0,-6.5l-7,0l-7,0l0,3.4zm9,4.6c0,4.9 -0.1,5 -3.1,5c-2.4,0 -2.9,-0.4 -2.5,-1.8c0.2,-0.9 0.7,-3.2 1.1,-5c0.5,-2.3 1.2,-3.2 2.6,-3.2c1.6,0 1.9,0.7 1.9,5z"/>
  <path fill="#3d4d64" id="svg_12" d="m388.00001,66.5c0,1 1,1.5 3,1.5l3,0l0,6.5c0,6.3 0.1,6.5 2.5,6.5c2.4,0 2.5,-0.2 2.5,-6.5c0,-6.3 0.1,-6.5 2.5,-6.5c1.6,0 2.5,-0.6 2.5,-1.5c0,-1.2 -1.6,-1.5 -8,-1.5c-6.4,0 -8,0.3 -8,1.5z"/>
  <path fill="#3d4d64" id="svg_13" d="m429.00001,71.1c0,5.3 -0.3,6.2 -2,6.6c-3.3,0.9 -2,3.8 1.4,3.6c4.1,-0.3 4.9,-1.5 5.4,-7.8c0.4,-4.5 0.8,-5.5 2.3,-5.5c1.7,0 1.9,0.8 1.9,6.5c0,6.3 0.1,6.5 2.5,6.5c2.5,0 2.5,-0.1 2.5,-8l0,-8l-7,0l-7,0l0,6.1z"/>
  <path fill="#3d4d64" id="svg_14" d="m448.00001,73l0,8l6.5,0c5.3,0 6.6,-0.3 7.5,-1.9c2.3,-4.5 0.6,-7.3 -5.2,-8c-3.8,-0.5 -4.3,-0.9 -4.6,-3.4c-0.2,-1.9 -0.9,-2.7 -2.3,-2.7c-1.7,0 -1.9,0.8 -1.9,8zm9.5,3c0,0.9 -1.1,1.6 -2.7,1.8c-2.3,0.3 -2.8,-0.1 -2.8,-1.8c0,-1.7 0.5,-2.1 2.8,-1.8c1.6,0.2 2.7,0.9 2.7,1.8z"/>
  <path fill="#3d4d64" id="svg_15" d="m483.00001,66.5c0,1 1,1.5 3,1.5l3,0l0,6.5c0,6.3 0.1,6.5 2.5,6.5c2.4,0 2.5,-0.2 2.5,-6.5c0,-6.3 0.1,-6.5 2.5,-6.5c1.6,0 2.5,-0.6 2.5,-1.5c0,-1.2 -1.6,-1.5 -8,-1.5c-6.4,0 -8,0.3 -8,1.5z"/>
  <path fill="#3d4d64" id="svg_16" d="m502.00001,73l0,8l7,0c6,0 7.1,-0.3 8,-2.1c0.9,-1.5 0.8,-2.5 -0.3,-4.2c-1.1,-1.7 -1.1,-2.6 -0.3,-4c2.1,-3.4 -0.4,-5.2 -7.8,-5.5l-6.6,-0.3l0,8.1zm9.8,-3.3c0.2,0.8 -0.6,1.3 -2.2,1.3c-1.7,0 -2.6,-0.5 -2.6,-1.6c0,-1.9 4.1,-1.6 4.8,0.3zm0.1,5.6c1.4,1.7 0.4,2.7 -2.6,2.7c-1.6,0 -2.3,-0.6 -2.3,-2c0,-2.3 3.1,-2.7 4.9,-0.7z"/>
  <path fill="#3d4d64" id="svg_17" d="m223,96.5c0,0.8 0.9,1.5 2,1.5c4.1,0 2.2,6.5 -5.7,18.7c-4.7,7.4 -7.3,15 -7.3,21.6l0,5.4l4.7,0.6c2.7,0.3 5.1,0.3 5.5,0.1c0.4,-0.3 0.5,-5.1 0.1,-10.8c-0.5,-8.8 -0.3,-11.3 1.5,-17.2c4,-13 4.5,-12.6 7.6,5.2c1.5,8.8 3,16.7 3.2,17.6c0.4,1.2 0,1.8 -1,1.8c-0.9,0 -1.6,0.7 -1.6,1.5c0,1.2 1.6,1.5 8.5,1.5c6.9,0 8.5,-0.3 8.5,-1.5c0,-0.8 -0.7,-1.5 -1.5,-1.5c-0.8,0 -1.5,-0.3 -1.5,-0.8c0,-1.8 5.3,-34.2 5.6,-33.9c1.1,1 6.3,34.2 5.4,34.5c-0.5,0.2 -1,1 -1,1.8c0,1.1 1.7,1.4 7.5,1.4c6,0 7.5,-0.3 7.5,-1.5c0,-0.8 -0.9,-1.5 -1.9,-1.5c-1.6,0 -2.2,-1.7 -4.1,-12.3c-1.2,-6.7 -3,-16.4 -4,-21.5c-1.6,-8.9 -1.6,-9.2 0.2,-9.2c1,0 1.8,-0.7 1.8,-1.5c0,-1.2 -1.6,-1.5 -8,-1.5c-6.4,0 -8,0.3 -8,1.5c0,0.8 0.7,1.5 1.6,1.5c1.2,0 1.4,0.7 1,2.7c-0.3,1.6 -1.7,10.2 -3.1,19.3c-1.5,9 -2.8,16.6 -3.1,16.9c-0.2,0.2 -0.4,0.1 -0.4,-0.3c0,-0.9 -5.8,-33.5 -6.5,-36.4c-0.4,-1.5 -0.1,-2.2 1,-2.2c0.8,0 1.5,-0.7 1.5,-1.5c0,-1.2 -1.6,-1.5 -8,-1.5c-6.4,0 -8,0.3 -8,1.5z"/>
  <path fill="#3d4d64" id="svg_18" d="m370.30001,111.2c-5.1,5.6 -7.3,14.4 -5.4,21.3c1.5,5.9 6.7,13.5 9,13.5c3.5,0 10.8,-10.7 8.7,-12.8c-0.4,-0.4 -1.6,0.4 -2.6,1.8c-2.4,3.1 -4.5,2.1 -7.4,-3.5c-2.3,-4.5 -3.4,-14.9 -1.7,-15.9c0.7,-0.4 2.7,0.8 4.8,2.9c1.9,1.9 3.7,3.4 3.8,3.3c4.5,-6.5 4.5,-7.1 -0.2,-10.3c-4.6,-3.1 -6.4,-3.1 -9,-0.3z"/>
  <path fill="#3d4d64" id="svg_19" d="m423.80001,111c-1.4,1 -3.5,4.3 -4.8,7.2c-2.2,5.1 -2.2,5.9 -1.6,24.3c0.4,10.4 1,19.2 1.3,19.5c0.2,0.3 1.4,-0.6 2.5,-2c1.8,-2.2 2,-3.5 1.5,-11.2l-0.4,-8.8l2.9,2.5c5,4.2 8.7,2.9 11.4,-4c2.9,-7.8 0.2,-21.7 -5.5,-27.4c-2.6,-2.6 -4.1,-2.6 -7.3,-0.1zm2.9,7.7c2.8,4.2 4.2,7.7 4.9,13c0.5,3.9 0.2,5.3 -1.4,7.3l-1.9,2.4l-2.6,-2.6c-4.2,-4.2 -5.7,-11.8 -3.6,-19.1c1.2,-4.4 2.1,-4.6 4.6,-1z"/>
  <path fill="#3d4d64" id="svg_20" d="m503.40001,110.9c-0.9,0.9 -0.3,3.5 1.8,8.2c2.8,5.9 4.8,6.4 4.8,1.1c0,-4.3 1.4,-6.2 4.7,-6.2c2.2,0 2.2,0.2 2.5,14.7l0.3,14.8l3.5,0l3.5,0l-0.4,-14.8l-0.3,-14.7l2.9,0c3.9,0 5.3,1.6 5.3,6.2c0,2.5 0.5,3.8 1.4,3.8c1.5,0 4.6,-7.3 4.6,-11l0,-2.5l-17.1,0c-9.4,0 -17.3,0.2 -17.5,0.4z"/>
  <path fill="#3d4d64" id="svg_21" d="m285.4,113.4c0.4,1.7 -0.3,3.5 -2.8,6.8c-8.1,10.5 -9.7,17.8 -5.1,22.4c3.8,3.8 8.5,1.9 11.3,-4.6l1.5,-3.5l1.4,4.7c1.3,4.6 1.6,4.8 5,4.8c3.2,0 3.5,-0.2 3,-2.3c-0.3,-1.2 -2,-8.6 -3.9,-16.4l-3.3,-14.3l-3.9,0c-3.5,0 -3.8,0.2 -3.2,2.4zm3.3,13.9c0.4,4.5 0.2,5.5 -1.6,7.2c-5.3,4.7 -7.7,-4.6 -3.1,-12c1.9,-3.1 2.4,-3.5 3.2,-2.1c0.5,1 1.2,4 1.5,6.9z"/>
  <path fill="#3d4d64" id="svg_22" d="m305.4,112.3c-0.2,0.7 -0.3,8 -0.2,16.2l0.3,15l3.3,0.3c2.1,0.2 3.2,-0.1 3.3,-1c0,-0.7 0,-5.5 -0.1,-10.6c-0.1,-5 0.3,-9.2 0.7,-9.2c0.5,0 2.5,1.1 4.6,2.5c3.6,2.5 3.7,2.7 3.7,9c0,8.4 0.5,9.5 4.4,9.5l3.3,0l-0.1,-16.5l-0.1,-16.5l-3.1,0c-3.6,0 -4.4,1.6 -4.4,9.3l0,4.8l-4.5,-3.1c-4.1,-2.8 -4.5,-3.5 -4.5,-7c0,-3.8 -0.2,-4 -3,-4c-1.7,0 -3.3,0.6 -3.6,1.3z"/>
  <path fill="#3d4d64" id="svg_23" d="m333,111.8c0,0.4 0.9,3.9 2,7.7c1.1,3.9 2.3,10.9 2.7,15.7l0.6,8.8l4.4,0l4.5,0l-0.6,3.7c-2.1,14.8 -1.9,16.1 2.8,14.9c2.2,-0.5 2.2,-0.7 1.3,-8.3c-0.9,-8.3 -0.2,-22.4 1.4,-28.5c1.2,-4.6 3.7,-7.4 5.2,-5.9c1.7,1.7 2.4,1.3 3,-1.7c0.3,-1.5 0.8,-3.7 1.2,-5c0.7,-1.9 0.4,-2.2 -2.3,-2.2c-3.4,0 -5.9,2 -7.4,5.9c-1.4,3.7 -3.8,16.7 -3.8,20.7c0,2.3 -0.5,3.4 -1.4,3.4c-1,0 -1.6,-1.7 -2.1,-5.8c-0.6,-6.3 -2.2,-17.1 -3.1,-21.5c-0.5,-2.4 -1,-2.7 -4.5,-2.7c-2.1,0 -3.9,0.3 -3.9,0.8z"/>
  <path fill="#3d4d64" id="svg_24" d="m389.60001,113.2c-0.9,3.5 -0.7,28.1 0.3,29.6c0.5,0.8 2.1,1.2 3.7,1l2.9,-0.3l-0.3,-7.4c-0.3,-5.8 -0.1,-7.2 1,-6.9c2.2,0.7 5.8,6.9 6.4,11c0.6,3.6 0.8,3.8 4.5,3.8c3.3,0 3.9,-0.3 3.9,-2.1c0,-4.1 -5.1,-10.8 -10.2,-13.5c-1.6,-0.8 -2.8,-1.8 -2.8,-2.3c0,-0.4 1.5,-2.5 3.4,-4.7c2.9,-3.4 3.5,-3.7 5,-2.5c2.1,1.8 3.2,0.7 4,-4.2c0.6,-3.4 0.5,-3.7 -1.7,-3.7c-3.4,0 -6,2.4 -10.3,9.5l-3.6,6l0.7,-7.8l0.7,-7.7l-3.5,0c-2.7,0 -3.6,0.5 -4.1,2.2z"/>
  <path fill="#3d4d64" id="svg_25" d="m444.60001,113.2c-0.3,1.3 -0.6,7.7 -0.6,14.3c0,15.6 0.3,16.5 4.7,16.5l3.6,0l-0.7,-7.9l-0.7,-8l4.8,-3.5l4.8,-3.5l0.5,11.2l0.5,11.2l3.5,0l3.5,0l-0.2,-16l-0.1,-16l-3.4,0c-3,0 -3.3,0.3 -3.6,3.2c-0.3,2.6 -1.3,3.9 -4.7,6.3c-2.4,1.6 -4.7,3 -5,3c-0.4,0 -0.3,-2.9 0,-6.5l0.7,-6.5l-3.5,0c-2.8,0 -3.6,0.5 -4.1,2.2z"/>
  <path fill="#3d4d64" id="svg_26" d="m475.60001,113.2c-0.8,3 -0.8,27.2 0,29.2c0.4,1 1.8,1.6 4.1,1.6l3.5,0l-0.7,-10.5c-0.4,-5.7 -0.4,-12.5 -0.1,-15l0.7,-4.5l4.2,0l4.3,0l-0.4,10.5c-0.3,5.8 -0.1,12.5 0.2,15c0.7,4.3 0.9,4.5 4.1,4.5l3.4,0l-0.1,-16.5l-0.2,-16.5l-11.2,0c-10.7,0 -11.2,0.1 -11.8,2.2z"/>
 </g>
</svg>