<svg width="541" height="220" xmlns="http://www.w3.org/2000/svg">
 <!-- Created with SVG Editor - http://github.com/mzalive/SVG Editor/ -->

 <g>
  <title>background</title>
  <rect fill="none" id="canvas_background" height="222" width="543" y="-1" x="-1"/>
  <g display="none" overflow="visible" y="0" x="0" height="100%" width="100%" id="canvasGrid">
   <rect fill="url(#gridpattern)" stroke-width="0" y="0" x="0" height="100%" width="100%"/>
  </g>
 </g>
 <g>
  <title>Layer 1</title>
  <g stroke="null" id="svg_30">
   <g id="svg_4" fill="#000000" transform="matrix(0.09941071872057654,0,0,-0.09941071872057654,-4143.482234798491,-2734.3193084472828) ">
    <path stroke="null" fill="#ffffff" id="svg_5" d="m42606.577507,-27624.571938c-146,-12 -308,-50 -381,-89c-145,-77 -207,-235 -188,-479c4,-47 12,-158 19,-248c24,-309 -19,-544 -157,-854c-28,-63 -37,-68 -130,-68c-51,0 -64,-3 -73,-19c-36,-68 23,-191 110,-227c31,-14 62,-13 300,7c247,21 282,22 510,11c135,-7 319,-19 410,-27c91,-8 220,-15 287,-15l123,0l40,36c50,45 93,134 121,250c34,141 30,357 -11,579c-53,289 -60,336 -60,456c0,162 35,289 106,383c14,20 15,20 65,2c103,-38 199,5 199,88c0,72 -40,94 -280,150c-278,64 -696,91 -1010,64zm665,-54c141,-14 336,-48 435,-77l44,-13l-36,-22c-52,-32 -131,-122 -158,-179c-93,-197 -98,-336 -27,-718c39,-208 41,-231 42,-410c0,-169 -3,-199 -23,-270c-43,-147 -101,-225 -168,-225c-62,0 -114,42 -114,91c0,22 10,35 46,59c83,58 62,65 -226,80c-118,5 -278,15 -355,21c-184,14 -563,14 -695,1c-57,-6 -105,-10 -107,-9c-1,2 16,48 38,102c132,327 160,538 124,920c-18,190 -16,316 5,387c6,20 28,63 50,96c59,88 148,130 345,163c179,29 500,30 780,3zm575,-134c12,-22 -11,-79 -33,-81c-6,0 -20,-2 -29,-4c-22,-4 -98,15 -98,25c0,15 110,79 137,80c7,0 17,-9 23,-20zm-1020,-1579c58,-5 164,-13 235,-17c72,-4 139,-8 150,-9c11,-1 26,-3 34,-4c11,-1 11,-5 -2,-19c-29,-32 -32,-77 -8,-117l21,-36l-52,5c-316,36 -874,58 -1008,42c-106,-13 -256,-26 -309,-26c-92,0 -151,52 -151,133l0,33l53,2c90,3 322,24 327,29c8,8 590,-5 710,-16z"/>
    <path stroke="null" fill="#ffffff" id="svg_6" d="m42416.577507,-28132.571938c0,-16 5,-30 10,-30c16,0 12,-32 -7,-52c-18,-20 -14,-31 10,-22c21,8 47,65 47,103c0,28 -3,31 -30,31c-27,0 -30,-3 -30,-30z"/>
    <path stroke="null" fill="#ffffff" id="svg_7" d="m42536.577507,-28131.571938c0,-26 4,-30 33,-33c31,-3 32,-4 29,-48c-4,-67 -27,-129 -107,-290c-94,-187 -115,-257 -122,-391c-8,-157 -9,-154 82,-156c93,-1 90,-7 76,186c-12,163 -2,274 35,393c29,91 54,152 59,146c4,-4 26,-144 83,-530l19,-128l-23,0c-20,0 -24,-5 -24,-30l0,-31l133,3l132,3l3,27c3,24 0,28 -22,28c-14,0 -26,6 -26,13c0,7 18,153 40,325c22,171 40,319 40,328c0,52 14,-24 55,-306c25,-173 48,-325 50,-337c4,-18 1,-23 -15,-23c-16,0 -20,-7 -20,-30l0,-30l120,0l120,0l0,30c0,27 -3,30 -30,30c-16,0 -30,2 -30,4c0,4 -105,708 -116,779c-6,36 -5,37 25,37c28,0 31,3 31,30l0,30l-125,0l-125,0l0,-30c0,-23 4,-30 20,-30c11,0 20,-6 20,-12c-2,-69 -99,-737 -104,-718c-7,28 -106,696 -106,717c0,7 11,13 25,13c21,0 25,5 25,30l0,30l-130,0l-130,0l0,-29z"/>
    <path stroke="null" fill="#ffffff" id="svg_8" d="m44736.577507,-28312.571938l0,-110l29,0c26,0 35,9 75,73l46,72l0,-72c0,-71 1,-73 25,-73l25,0l0,110l0,110l-28,0c-23,0 -34,-11 -69,-67l-43,-68l0,68l0,67l-30,0l-30,0l0,-110z"/>
    <path stroke="null" fill="#ffffff" id="svg_9" d="m44998.577507,-28268.571938c-30,-21 -28,-44 3,-44c14,0 25,5 25,11c0,13 50,8 53,-6c1,-5 -8,-11 -20,-13c-31,-4 -29,-28 2,-36c30,-8 33,-32 4,-41c-13,-4 -27,-1 -39,10c-10,9 -29,15 -42,13l-23,-3l27,-27c47,-49 148,-30 148,27c0,13 -5,27 -10,30c-7,4 -7,12 0,25c13,25 3,50 -27,61c-36,13 -76,11 -101,-7z"/>
    <path stroke="null" fill="#ffffff" id="svg_10" d="m45419.577507,-28267.571938c-43,-31 -19,-61 26,-33c21,13 55,4 49,-14c-3,-7 -23,-16 -46,-20c-56,-9 -62,-14 -62,-47c0,-38 22,-55 62,-47c18,4 48,6 66,6l32,-1l0,64c0,36 -6,71 -13,81c-18,25 -86,31 -114,11zm77,-100c0,-17 -36,-39 -50,-30c-14,9 -12,32 3,38c24,10 47,7 47,-8z"/>
    <path stroke="null" fill="#ffffff" id="svg_11" d="m45790.577507,-28266.571938c-35,-16 -44,-32 -44,-82c0,-68 73,-105 139,-71c37,19 40,41 5,35c-16,-3 -36,-8 -45,-12c-16,-7 -49,16 -49,35c0,5 30,9 66,9l66,0l-6,28c-8,34 -50,72 -79,72c-12,-1 -36,-7 -53,-14zm74,-48c3,-14 -3,-18 -26,-18c-34,0 -43,7 -35,27c8,20 57,13 61,-9z"/>
    <path stroke="null" fill="#ffffff" id="svg_12" d="m46379.577507,-28262.571938c-28,-12 -43,-40 -43,-85c0,-49 36,-85 85,-85c35,0 85,35 85,60c0,18 -41,11 -58,-11c-33,-40 -73,6 -58,66c5,18 13,25 32,25c13,0 27,-7 30,-15c7,-17 40,-20 49,-5c3,5 -5,21 -19,35c-26,26 -62,31 -103,15z"/>
    <path stroke="null" fill="#ffffff" id="svg_13" d="m46929.577507,-28264.571938c-52,-25 -54,-129 -3,-156c35,-18 101,-8 122,18c18,22 24,74 12,105c-14,36 -86,55 -131,33zm81,-44c15,-39 -5,-94 -34,-94c-33,0 -53,73 -28,98c17,17 55,15 62,-4z"/>
    <path stroke="null" fill="#ffffff" id="svg_14" d="m45196.577507,-28296.571938c0,-46 -19,-96 -37,-96c-10,0 -13,-10 -11,-37c2,-30 7,-38 23,-38c13,0 21,8 23,23c3,20 9,22 62,22c53,0 59,-2 62,-22c2,-15 10,-23 23,-23c16,0 21,8 23,38c2,28 0,37 -12,37c-13,0 -16,13 -16,65l0,65l-70,0l-70,0l0,-34zm90,-46c0,-49 -1,-50 -31,-50c-24,0 -29,4 -25,18c2,9 7,32 11,50c5,23 12,32 26,32c16,0 19,-7 19,-50z"/>
    <path stroke="null" fill="#ffffff" id="svg_15" d="m45566.577507,-28277.571938c0,-10 10,-15 30,-15l30,0l0,-65c0,-63 1,-65 25,-65c24,0 25,2 25,65c0,63 1,65 25,65c16,0 25,6 25,15c0,12 -16,15 -80,15c-64,0 -80,-3 -80,-15z"/>
    <path stroke="null" fill="#ffffff" id="svg_16" d="m45976.577507,-28323.571938c0,-53 -3,-62 -20,-66c-33,-9 -20,-38 14,-36c41,3 49,15 54,78c4,45 8,55 23,55c17,0 19,-8 19,-65c0,-63 1,-65 25,-65c25,0 25,1 25,80l0,80l-70,0l-70,0l0,-61z"/>
    <path stroke="null" fill="#ffffff" id="svg_17" d="m46166.577507,-28342.571938l0,-80l65,0c53,0 66,3 75,19c23,45 6,73 -52,80c-38,5 -43,9 -46,34c-2,19 -9,27 -23,27c-17,0 -19,-8 -19,-80zm95,-30c0,-9 -11,-16 -27,-18c-23,-3 -28,1 -28,18c0,17 5,21 28,18c16,-2 27,-9 27,-18z"/>
    <path stroke="null" fill="#ffffff" id="svg_18" d="m46516.577507,-28277.571938c0,-10 10,-15 30,-15l30,0l0,-65c0,-63 1,-65 25,-65c24,0 25,2 25,65c0,63 1,65 25,65c16,0 25,6 25,15c0,12 -16,15 -80,15c-64,0 -80,-3 -80,-15z"/>
    <path stroke="null" fill="#ffffff" id="svg_19" d="m46706.577507,-28342.571938l0,-80l70,0c60,0 71,3 80,21c9,15 8,25 -3,42c-11,17 -11,26 -3,40c21,34 -4,52 -78,55l-66,3l0,-81zm98,33c2,-8 -6,-13 -22,-13c-17,0 -26,5 -26,16c0,19 41,16 48,-3zm1,-56c14,-17 4,-27 -26,-27c-16,0 -23,6 -23,20c0,23 31,27 49,7z"/>
    <path stroke="null" fill="#ffffff" id="svg_20" d="m43916.577507,-28577.571938c0,-8 9,-15 20,-15c41,0 22,-65 -57,-187c-47,-74 -73,-150 -73,-216l0,-54l47,-6c27,-3 51,-3 55,-1c4,3 5,51 1,108c-5,88 -3,113 15,172c40,130 45,126 76,-52c15,-88 30,-167 32,-176c4,-12 0,-18 -10,-18c-9,0 -16,-7 -16,-15c0,-12 16,-15 85,-15c69,0 85,3 85,15c0,8 -7,15 -15,15c-8,0 -15,3 -15,8c0,18 53,342 56,339c11,-10 63,-342 54,-345c-5,-2 -10,-10 -10,-18c0,-11 17,-14 75,-14c60,0 75,3 75,15c0,8 -9,15 -19,15c-16,0 -22,17 -41,123c-12,67 -30,164 -40,215c-16,89 -16,92 2,92c10,0 18,7 18,15c0,12 -16,15 -80,15c-64,0 -80,-3 -80,-15c0,-8 7,-15 16,-15c12,0 14,-7 10,-27c-3,-16 -17,-102 -31,-193c-15,-90 -28,-166 -31,-169c-2,-2 -4,-1 -4,3c0,9 -58,335 -65,364c-4,15 -1,22 10,22c8,0 15,7 15,15c0,12 -16,15 -80,15c-64,0 -80,-3 -80,-15z"/>
    <path stroke="null" fill="#ffffff" id="svg_21" d="m45389.577507,-28724.571938c-51,-56 -73,-144 -54,-213c15,-59 67,-135 90,-135c35,0 108,107 87,128c-4,4 -16,-4 -26,-18c-24,-31 -45,-21 -74,35c-23,45 -34,149 -17,159c7,4 27,-8 48,-29c19,-19 37,-34 38,-33c45,65 45,71 -2,103c-46,31 -64,31 -90,3z"/>
    <path stroke="null" fill="#ffffff" id="svg_22" d="m45924.577507,-28722.571938c-14,-10 -35,-43 -48,-72c-22,-51 -22,-59 -16,-243c4,-104 10,-192 13,-195c2,-3 14,6 25,20c18,22 20,35 15,112l-4,88l29,-25c50,-42 87,-29 114,40c29,78 2,217 -55,274c-26,26 -41,26 -73,1zm29,-77c28,-42 42,-77 49,-130c5,-39 2,-53 -14,-73l-19,-24l-26,26c-42,42 -57,118 -36,191c12,44 21,46 46,10z"/>
    <path stroke="null" fill="#ffffff" id="svg_23" d="m46720.577507,-28721.571938c-9,-9 -3,-35 18,-82c28,-59 48,-64 48,-11c0,43 14,62 47,62c22,0 22,-2 25,-147l3,-148l35,0l35,0l-4,148l-3,147l29,0c39,0 53,-16 53,-62c0,-25 5,-38 14,-38c15,0 46,73 46,110l0,25l-171,0c-94,0 -173,-2 -175,-4z"/>
    <path stroke="null" fill="#ffffff" id="svg_24" d="m44540.577507,-28746.571938c4,-17 -3,-35 -28,-68c-81,-105 -97,-178 -51,-224c38,-38 85,-19 113,46l15,35l14,-47c13,-46 16,-48 50,-48c32,0 35,2 30,23c-3,12 -20,86 -39,164l-33,143l-39,0c-35,0 -38,-2 -32,-24zm33,-139c4,-45 2,-55 -16,-72c-53,-47 -77,46 -31,120c19,31 24,35 32,21c5,-10 12,-40 15,-69z"/>
    <path stroke="null" fill="#ffffff" id="svg_25" d="m44740.577507,-28735.571938c-2,-7 -3,-80 -2,-162l3,-150l33,-3c21,-2 32,1 33,10c0,7 0,55 -1,106c-1,50 3,92 7,92c5,0 25,-11 46,-25c36,-25 37,-27 37,-90c0,-84 5,-95 44,-95l33,0l-1,165l-1,165l-31,0c-36,0 -44,-16 -44,-93l0,-48l-45,31c-41,28 -45,35 -45,70c0,38 -2,40 -30,40c-17,0 -33,-6 -36,-13z"/>
    <path stroke="null" fill="#ffffff" id="svg_26" d="m45016.577507,-28730.571938c0,-4 9,-39 20,-77c11,-39 23,-109 27,-157l6,-88l44,0l45,0l-6,-37c-21,-148 -19,-161 28,-149c22,5 22,7 13,83c-9,83 -2,224 14,285c12,46 37,74 52,59c17,-17 24,-13 30,17c3,15 8,37 12,50c7,19 4,22 -23,22c-34,0 -59,-20 -74,-59c-14,-37 -38,-167 -38,-207c0,-23 -5,-34 -14,-34c-10,0 -16,17 -21,58c-6,63 -22,171 -31,215c-5,24 -10,27 -45,27c-21,0 -39,-3 -39,-8z"/>
    <path stroke="null" fill="#ffffff" id="svg_27" d="m45582.577507,-28744.571938c-9,-35 -7,-281 3,-296c5,-8 21,-12 37,-10l29,3l-3,74c-3,58 -1,72 10,69c22,-7 58,-69 64,-110c6,-36 8,-38 45,-38c33,0 39,3 39,21c0,41 -51,108 -102,135c-16,8 -28,18 -28,23c0,4 15,25 34,47c29,34 35,37 50,25c21,-18 32,-7 40,42c6,34 5,37 -17,37c-34,0 -60,-24 -103,-95l-36,-60l7,78l7,77l-35,0c-27,0 -36,-5 -41,-22z"/>
    <path stroke="null" fill="#ffffff" id="svg_28" d="m46132.577507,-28744.571938c-3,-13 -6,-77 -6,-143c0,-156 3,-165 47,-165l36,0l-7,79l-7,80l48,35l48,35l5,-112l5,-112l35,0l35,0l-2,160l-1,160l-34,0c-30,0 -33,-3 -36,-32c-3,-26 -13,-39 -47,-63c-24,-16 -47,-30 -50,-30c-4,0 -3,29 0,65l7,65l-35,0c-28,0 -36,-5 -41,-22z"/>
    <path stroke="null" fill="#ffffff" id="svg_29" d="m46442.577507,-28744.571938c-8,-30 -8,-272 0,-292c4,-10 18,-16 41,-16l35,0l-7,105c-4,57 -4,125 -1,150l7,45l42,0l43,0l-4,-105c-3,-58 -1,-125 2,-150c7,-43 9,-45 41,-45l34,0l-1,165l-2,165l-112,0c-107,0 -112,-1 -118,-22z"/>
   </g>
  </g>
 </g>
</svg>