<svg width="512" height="512" xmlns="http://www.w3.org/2000/svg">
 <!--! Font Awesome Pro 6.1.1 by @fontawesome - https://fontawesome.com License - https://fontawesome.com/license (Commercial License) Copyright 2022 Fonticons, Inc. -->

 <g>
  <title>background</title>
  <rect fill="none" id="canvas_background" height="402" width="582" y="-1" x="-1"/>
 </g>
 <g>
  <title>Layer 1</title>
  <path fill="#ffffff" id="svg_1" d="m362.7,19.32c25,-24.998 65.6,-24.998 90.6,0l39.4,39.43c25,24.99 25,65.55 0,90.55l-48.4,48.4l-130,-129.98l48.4,-48.4zm59,200.98l-233.2,233.1c-10.4,10.4 -23.3,18.1 -37.4,22.2l-120.33,35.4c-8.42,2.5 -17.53,0.2 -23.74,-6.9c-6.2102,-5.3 -8.532,-14.4 -6.054,-22.9l35.394,-120.3c4.16,-14.1 11.79,-27 22.2,-37.4l233.13,-233.16l130,129.96z"/>
 </g>
</svg>