<svg width="383.99999999999994" height="512" xmlns="http://www.w3.org/2000/svg">
 <!--! Font Awesome Pro 6.1.1 by @fontawesome - https://fontawesome.com License - https://fontawesome.com/license (Commercial License) Copyright 2022 Fonticons, Inc. -->

 <g>
  <title>background</title>
  <rect x="-1" y="-1" width="582" height="402" id="canvas_background" fill="none"/>
 </g>
 <g>
  <title>Layer 1</title>
  <path d="m13.97,2.196c8.52,-3.916 18.53,-2.5174 25.65,3.582l40.38,34.612l40.4,-34.612c9,-7.704 22.2,-7.704 31.2,0l40.4,34.612l40.4,-34.612c9,-7.704 22.2,-7.704 31.2,0l40.4,34.612l40.4,-34.612c7.1,-6.0994 17.1,-7.498 25.6,-3.582c8.5,3.917 14,12.434 14,21.804l0,464c0,9.4 -5.5,17.9 -14,21.8c-8.5,3.9 -18.5,2.5 -25.6,-3.6l-40.4,-34.6l-40.4,34.6c-9,7.7 -22.2,7.7 -31.2,0l-40.4,-34.6l-40.4,34.6c-9,7.7 -22.2,7.7 -31.2,0l-40.4,-34.6l-40.38,34.6c-7.12,6.1 -17.13,7.5 -25.65,3.6c-8.514,-3.9 -13.97,-12.4 -13.97,-21.8l0,-464c0,-9.37 5.456,-17.888 13.97,-21.804l0,0zm82.03,141.804c-8.84,0 -16,7.2 -16,16c0,8.8 7.16,16 16,16l192,0c8.8,0 16,-7.2 16,-16c0,-8.8 -7.2,-16 -16,-16l-192,0zm0,224l192,0c8.8,0 16,-7.2 16,-16c0,-8.8 -7.2,-16 -16,-16l-192,0c-8.84,0 -16,7.2 -16,16c0,8.8 7.16,16 16,16zm0,-128c-8.84,0 -16,7.2 -16,16c0,8.8 7.16,16 16,16l192,0c8.8,0 16,-7.2 16,-16c0,-8.8 -7.2,-16 -16,-16l-192,0z" id="svg_1" fill="#000000"/>
 </g>
</svg>