<svg width="23.999999999999996" height="23.999999999999996" xmlns="http://www.w3.org/2000/svg">

 <g>
  <title>background</title>
  <rect fill="none" id="canvas_background" height="402" width="582" y="-1" x="-1"/>
 </g>
 <g>
  <title>Layer 1</title>
  <path fill="#ffffff" id="svg_1" d="m3,3l5,0l0,-3l-5,0a3,3 0 0 0 -3,3l0,18a3,3 0 0 0 3,3l5,0l0,-3l-5,0l0,-18z"/>
  <path fill="#ffffff" id="svg_2" d="m22.948,9.525l-4.586,-4.586l-2.121,2.122l3.413,3.412l-14.654,0.027l0,3l14.7,-0.027l-3.466,3.466l2.121,2.122l4.587,-4.586a3.506,3.506 0 0 0 0.006,-4.95z"/>
 </g>
</svg>