<svg width="23.999999999999996" height="23.999999999999996" xmlns="http://www.w3.org/2000/svg">
 <g>
  <title>background</title>
  <rect x="-1" y="-1" width="582" height="402" id="canvas_background" fill="none"/>
 </g>

 <g>
  <title>Layer 1</title>
  <path d="m3,3l5,0l0,-3l-5,0a3,3 0 0 0 -3,3l0,18a3,3 0 0 0 3,3l5,0l0,-3l-5,0l0,-18z" id="svg_1" fill="#000000"/>
  <path d="m22.948,9.525l-4.586,-4.586l-2.121,2.122l3.413,3.412l-14.654,0.027l0,3l14.7,-0.027l-3.466,3.466l2.121,2.122l4.587,-4.586a3.506,3.506 0 0 0 0.006,-4.95z" id="svg_2" fill="#000000"/>
 </g>
</svg>